# xmcd
#
# Track frame offsets:
#	150
#	13204
#	21701
#	30423
#	41707
#	55869
#	63043
#	83789
#	97734
#	103715
#	129427
#	137491
#	151286
#	163429
#	175951
#
# Disc length: 2456 seconds
#
# Revision: 0
# Processed by: cddbd v1.5.1PL0 Copyright (c) Steve Scherf et al.
# Submitted via: audiograbber 1.81.03
#
DISCID=c009960f
DTITLE=Blind Willie`McTell - The`Devil Can't Hide From Me
DYEAR=2003
DGENRE=Blues
TTITLE0=Just As Well Get Ready You Got To Die Climbing High Mountains Tryin To 
TTITLE0=Get Home
TTITLE1=Monologue On Accidents
TTITLE2=Boll Weevil
TTITLE3=Delia
TTITLE4=Dying Crapshooter's Blues
TTITLE5=Will Fox
TTITLE6=I Got To Cross The River Jordan
TTITLE7=Monologue On Old Songs Old Time Religion Amen
TTITLE8=Amazing Grace
TTITLE9=Monologues On The History Of The Blues Life As Maker Of Records On Hims
TTITLE9=elf
TTITLE10=King Edward Blues
TTITLE11=Murderer's Home Blues
TTITLE12=Kill It Kid Rag
TTITLE13=Chainey
TTITLE14=I Got To Cross The River Of Jordan
EXTD=YEAR: 2003
EXTT0=
EXTT1=
EXTT2=
EXTT3=
EXTT4=
EXTT5=
EXTT6=
EXTT7=
EXTT8=
EXTT9=
EXTT10=
EXTT11=
EXTT12=
EXTT13=
EXTT14=
PLAYORDER=
